normalP12_grf.mot
version=1
nRows=10
nColumns=19
inDegrees=yes
endheader
time	1_ground_force_vx	1_ground_force_vy	1_ground_force_vz	1_ground_force_px	1_ground_force_py	1_ground_force_pz	1_ground_torque_x	1_ground_torque_y	1_ground_torque_z	2_ground_force_vx	2_ground_force_vy	2_ground_force_vz	2_ground_force_px	2_ground_force_py	2_ground_force_pz	2_ground_torque_x	2_ground_torque_y	2_ground_torque_z
            1.840000	          183.056253	          536.928240	           -7.581970	            0.388848	            0.002273	           -0.201929	            1.054787	            3.093830	           -0.043688	          -92.108732	          421.427581	          -15.109632	            0.888525	            0.001103	           -0.298574	            0.175611	           -0.803477	            0.028807
            1.841000	          181.202032	          524.978170	           -7.202360	            0.388819	            0.002274	           -0.202244	            1.050056	            3.042221	           -0.041737	          -91.566673	          424.700922	          -13.844464	            0.888613	            0.001104	           -0.298966	            0.173766	           -0.805956	            0.026273
            1.842000	          179.057807	          513.108915	           -6.768771	            0.388812	            0.002275	           -0.202399	            1.022036	            2.928752	           -0.038635	          -90.487147	          428.131426	          -12.548385	            0.888804	            0.001105	           -0.299188	            0.167020	           -0.790240	            0.023162
            1.843000	          176.747611	          499.964500	           -6.422767	            0.388953	            0.002275	           -0.202731	            1.015908	            2.873691	           -0.036917	          -88.963901	          433.398746	          -11.092253	            0.889015	            0.001104	           -0.299321	            0.159471	           -0.776884	            0.019883
            1.844000	          174.382778	          488.336626	           -6.049232	            0.388863	            0.002275	           -0.202568	            0.979243	            2.742246	           -0.033969	          -87.134288	          438.588130	           -9.759818	            0.889071	            0.001107	           -0.300082	            0.164002	           -0.825501	            0.018370
            1.845000	          171.521853	          475.114787	           -5.917329	            0.389332	            0.002274	           -0.202797	            0.945182	            2.618151	           -0.032608	          -85.139132	          445.133457	           -8.491624	            0.889042	            0.001107	           -0.299939	            0.143814	           -0.751903	            0.014344
            1.846000	          168.902552	          463.009854	           -5.629092	            0.388807	            0.002276	           -0.202895	            0.929392	            2.547728	           -0.030974	          -82.543383	          452.562044	           -7.758388	            0.889361	            0.001109	           -0.300979	            0.135054	           -0.740462	            0.012694
            1.847000	          166.668974	          449.707020	           -5.046122	            0.388804	            0.002276	           -0.202866	            0.900222	            2.428985	           -0.027255	          -80.413567	          462.222678	           -5.687244	            0.889482	            0.001108	           -0.300859	            0.130720	           -0.751387	            0.009245
            1.848000	          163.394966	          436.487887	           -5.036120	            0.388844	            0.002278	           -0.203433	            0.898368	            2.399872	           -0.027689	          -78.104878	          470.768535	           -4.550369	            0.889910	            0.001109	           -0.301437	            0.123591	           -0.744929	            0.007200
            1.849000	          160.261598	          422.072126	           -4.907103	            0.389085	            0.002277	           -0.203384	            0.866081	            2.280950	           -0.026519	          -76.061747	          479.792515	           -2.627027	            0.890597	            0.001110	           -0.302202	            0.127433	           -0.803836	            0.004401
